<?xml version="1.0" encoding="UTF-8" standalone="no"?>
<!-- Created with Inkscape (http://www.inkscape.org/) -->

<svg
   version="1.1"
   id="svg2"
   width="1349.3333"
   height="526.04932"
   viewBox="0 0 1349.3333 526.04932"
   sodipodi:docname="amso_logo.svg"
   inkscape:version="1.2.2 (b0a8486541, 2022-12-01)"
   xmlns:inkscape="http://www.inkscape.org/namespaces/inkscape"
   xmlns:sodipodi="http://sodipodi.sourceforge.net/DTD/sodipodi-0.dtd"
   xmlns="http://www.w3.org/2000/svg"
   xmlns:svg="http://www.w3.org/2000/svg">
  <defs
     id="defs6">
    <clipPath
       clipPathUnits="userSpaceOnUse"
       id="clipPath18">
      <path
         d="M 0,394.537 H 1012 V 0 H 0 Z"
         id="path16" />
    </clipPath>
    <clipPath
       clipPathUnits="userSpaceOnUse"
       id="clipPath42">
      <path
         d="M 0,394.537 H 1012 V 0 H 0 Z"
         id="path40" />
    </clipPath>
  </defs>
  <sodipodi:namedview
     id="namedview4"
     pagecolor="#ffffff"
     bordercolor="#000000"
     borderopacity="0.25"
     inkscape:showpageshadow="2"
     inkscape:pageopacity="0.0"
     inkscape:pagecheckerboard="0"
     inkscape:deskcolor="#d1d1d1"
     showgrid="false"
     inkscape:zoom="1.0612649"
     inkscape:cx="674.66662"
     inkscape:cy="262.89384"
     inkscape:window-width="1920"
     inkscape:window-height="1043"
     inkscape:window-x="1920"
     inkscape:window-y="0"
     inkscape:window-maximized="1"
     inkscape:current-layer="g38">
    <inkscape:page
       x="0"
       y="0"
       id="page8"
       width="1349.3333"
       height="526.04932" />
  </sodipodi:namedview>
  <g
     id="g10"
     inkscape:groupmode="layer"
     inkscape:label="Page 1"
     transform="matrix(1.3333333,0,0,-1.3333333,0,526.04933)">
    <g
       id="g12">
      <g
         id="g14"
         clip-path="url(#clipPath18)">
        <g
           id="g20"
           transform="translate(678.3335,196.0931)">
          <path
             d="m 0,0 c 0,-6.125 1.043,-11.351 3.136,-15.68 2.09,-4.334 5.001,-7.879 8.736,-10.64 3.731,-2.765 8.025,-4.782 12.88,-6.048 4.851,-1.271 10.115,-1.903 15.792,-1.903 6.122,0 11.347,0.707 15.68,2.126 4.329,1.418 7.84,3.249 10.528,5.489 2.688,2.24 4.627,4.816 5.824,7.728 1.194,2.912 1.792,5.86 1.792,8.848 0,6.121 -1.383,10.641 -4.144,13.553 -2.765,2.911 -5.789,4.963 -9.072,6.159 -5.677,2.09 -12.285,4.067 -19.824,5.936 -7.542,1.866 -16.839,4.291 -27.888,7.28 -6.871,1.793 -12.583,4.144 -17.136,7.056 -4.557,2.912 -8.176,6.16 -10.864,9.744 -2.688,3.584 -4.592,7.392 -5.712,11.424 -1.12,4.032 -1.68,8.137 -1.68,12.321 0,8.063 1.68,15.043 5.04,20.943 3.36,5.897 7.802,10.787 13.328,14.672 5.523,3.882 11.795,6.756 18.816,8.624 7.018,1.866 14.112,2.8 21.28,2.8 8.362,0 16.24,-1.084 23.632,-3.248 7.392,-2.166 13.888,-5.414 19.488,-9.745 5.6,-4.332 10.041,-9.669 13.328,-16.015 3.283,-6.349 4.928,-13.702 4.928,-22.065 h -28 C 69.139,69.664 65.632,76.943 59.36,81.2 c -6.272,4.256 -14.263,6.384 -23.968,6.384 -3.287,0 -6.646,-0.336 -10.08,-1.008 -3.437,-0.672 -6.573,-1.792 -9.408,-3.36 -2.839,-1.568 -5.191,-3.696 -7.056,-6.384 -1.869,-2.687 -2.8,-6.048 -2.8,-10.08 0,-5.677 1.753,-10.119 5.264,-13.328 3.507,-3.213 8.099,-5.639 13.776,-7.279 0.595,-0.151 2.947,-0.786 7.056,-1.905 4.106,-1.12 8.697,-2.351 13.776,-3.696 5.075,-1.344 10.041,-2.653 14.896,-3.92 4.851,-1.27 8.323,-2.205 10.416,-2.8 5.226,-1.644 9.779,-3.885 13.664,-6.72 3.881,-2.838 7.129,-6.086 9.744,-9.745 2.611,-3.66 4.553,-7.58 5.824,-11.759 1.267,-4.182 1.904,-8.366 1.904,-12.543 0,-8.961 -1.83,-16.616 -5.488,-22.961 -3.661,-6.349 -8.477,-11.535 -14.448,-15.569 -5.974,-4.031 -12.768,-6.982 -20.384,-8.847 -7.616,-1.866 -15.382,-2.8 -23.296,-2.8 -9.11,0 -17.696,1.12 -25.76,3.36 -8.064,2.24 -15.085,5.674 -21.056,10.304 -5.975,4.627 -10.752,10.563 -14.336,17.808 -3.584,7.242 -5.453,15.793 -5.6,25.648 z"
             style="fill:#25488c;fill-opacity:1;fill-rule:nonzero;stroke:none"
             id="path22" />
        </g>
        <g
           id="g24"
           transform="translate(878.2124,283.6771)">
          <path
             d="m 0,0 c -8.513,0 -15.87,-1.719 -22.064,-5.152 -6.199,-3.437 -11.239,-8.03 -15.121,-13.776 -3.885,-5.751 -6.758,-12.285 -8.624,-19.599 -1.869,-7.32 -2.799,-14.786 -2.799,-22.401 0,-7.616 0.93,-15.086 2.799,-22.4 1.866,-7.318 4.739,-13.854 8.624,-19.6 3.882,-5.751 8.922,-10.343 15.121,-13.776 6.194,-3.437 13.551,-5.151 22.064,-5.151 8.512,0 15.865,1.714 22.063,5.151 6.194,3.433 11.235,8.025 15.12,13.776 3.881,5.746 6.755,12.282 8.624,19.6 1.865,7.314 2.8,14.784 2.8,22.4 0,7.615 -0.935,15.081 -2.8,22.401 -1.869,7.314 -4.743,13.848 -8.624,19.599 -3.885,5.746 -8.926,10.339 -15.12,13.776 C 15.865,-1.719 8.512,0 0,0 m 0,22.848 c 11.945,0 22.658,-2.241 32.143,-6.72 9.482,-4.48 17.507,-10.528 24.079,-18.144 6.57,-7.616 11.61,-16.503 15.121,-26.656 3.506,-10.157 5.264,-20.909 5.264,-32.256 0,-11.502 -1.758,-22.326 -5.264,-32.48 -3.511,-10.156 -8.551,-19.039 -15.121,-26.656 -6.572,-7.616 -14.597,-13.629 -24.079,-18.032 -9.485,-4.403 -20.198,-6.608 -32.143,-6.608 -11.95,0 -22.663,2.205 -32.145,6.608 -9.484,4.403 -17.51,10.416 -24.08,18.032 -6.572,7.617 -11.612,16.5 -15.12,26.656 -3.51,10.154 -5.263,20.978 -5.263,32.48 0,11.347 1.753,22.099 5.263,32.256 3.508,10.153 8.548,19.04 15.12,26.656 6.57,7.616 14.596,13.664 24.08,18.144 9.482,4.479 20.195,6.72 32.145,6.72"
             style="fill:#25488c;fill-opacity:1;fill-rule:nonzero;stroke:none"
             id="path26" />
        </g>
        <g
           id="g28"
           transform="translate(455.4062,302.7171)">
          <path
             d="M 0,0 H 39.424 L 83.552,-125.216 H 84 L 127.008,0 h 38.975 V -159.937 H 139.328 V -36.513 H 138.88 L 94.527,-159.937 H 71.456 L 27.104,-36.513 H 26.656 V -159.937 H 0 Z"
             style="fill:#337fcb;fill-opacity:1;fill-rule:nonzero;stroke:none"
             id="path30" />
        </g>
        <g
           id="g32"
           transform="translate(332.21301,206.3978)">
          <path
             d="M 0,0 H 48.832 L 24.864,68.768 H 24.191 Z M 9.855,96.319 H 39.647 L 101.248,-63.617 H 71.231 l -15.007,42.336 h -63.84 l -15.008,-42.336 h -28.897 z"
             style="fill:#337fcb;fill-opacity:1;fill-rule:nonzero;stroke:none"
             id="path34" />
        </g>
      </g>
    </g>
    <g
       id="g36">
      <g
         id="g38"
         clip-path="url(#clipPath42)">
        <g
           id="g44"
           transform="rotate(-180,90.28345,107.07235)">
          <path
             d="m 0,0 c 9.323,9.026 21.179,13.949 34.153,14.147 1.639,0.025 3.033,1.369 3.033,3.032 v 18.537 c 0,1.626 -1.39,3.051 -3.033,3.033 -19.457,-0.219 -37.63,-7.761 -51.549,-21.353 -2.797,-2.731 1.493,-7.018 4.288,-4.289 12.8,12.499 29.374,19.376 47.261,19.577 l -3.032,3.032 V 17.179 l 3.032,3.032 C 19.583,19.989 6.18,14.422 -4.289,4.288 -7.098,1.568 -2.807,-2.717 0,0"
             style="fill:#25488c;fill-opacity:1;fill-rule:nonzero;stroke:none"
             id="path46" />
        </g>
        <g
           id="g48"
           transform="rotate(-180,46.0383,96.8509)">
          <path
             d="m 0,0 h -16.754 c -1.65,0 -3.018,-1.39 -3.033,-3.032 -0.417,-47.02 -38.711,-85.314 -85.731,-85.731 -1.639,-0.015 -3.032,-1.378 -3.032,-3.032 v -16.755 c 0,-1.63 1.389,-3.044 3.032,-3.032 28.696,0.215 56.413,11.45 76.757,31.793 20.343,20.344 31.578,48.061 31.793,76.757 0.03,3.903 -6.035,3.907 -6.064,0 -0.203,-27.137 -10.792,-53.218 -30.018,-72.468 -19.216,-19.241 -45.356,-29.815 -72.468,-30.018 l 3.033,-3.032 v 16.755 l -3.033,-3.033 c 50.322,0.447 91.349,41.474 91.796,91.796 l -3.032,-3.032 H 0 C 3.902,-6.064 3.909,0 0,0"
             style="fill:#337fcb;fill-opacity:1;fill-rule:nonzero;stroke:none"
             id="path50" />
        </g>
        <g
           id="g52"
           transform="rotate(-180,103.5171,93.8387)">
          <path
             d="m 0,0 c 16.315,16.01 37.762,24.907 60.621,25.11 1.639,0.015 3.032,1.377 3.032,3.032 v 16.754 c 0,1.631 -1.389,3.045 -3.032,3.033 C 31.925,47.714 4.208,36.479 -16.135,16.135 -36.479,-4.208 -47.714,-31.926 -47.929,-60.621 c -0.012,-1.639 1.399,-3.032 3.032,-3.032 h 16.755 c 1.65,0 3.017,1.389 3.032,3.032 0.203,22.858 9.1,44.306 25.11,60.621 2.736,2.788 -1.549,7.08 -4.288,4.288 -17.118,-17.444 -26.67,-40.467 -26.886,-64.909 l 3.032,3.032 h -16.755 l 3.032,-3.032 c 0.203,27.137 10.793,53.218 30.018,72.468 19.216,19.241 45.356,29.815 72.468,30.017 l -3.033,3.032 V 28.142 l 3.033,3.032 C 36.179,30.958 13.156,21.407 -4.288,4.288 -7.078,1.55 -2.789,-2.737 0,0"
             style="fill:#25488c;fill-opacity:1;fill-rule:nonzero;stroke:none"
             id="path54" />
        </g>
        <g
           id="g56"
           transform="rotate(-180,96.8374,100.51865)">
          <path
             d="m 0,0 c 12.8,12.499 29.374,19.375 47.261,19.577 1.639,0.018 3.032,1.374 3.032,3.032 v 18.893 c 0,1.628 -1.389,3.047 -3.032,3.032 C -3.06,44.088 -44.087,3.06 -44.534,-47.261 c -0.014,-1.639 1.401,-3.032 3.033,-3.032 h 18.893 c 1.652,0 3.013,1.389 3.032,3.032 C -19.375,-29.374 -12.498,-12.8 0,0 2.729,2.794 -1.556,7.087 -4.288,4.289 -17.88,-9.631 -25.422,-27.804 -25.641,-47.261 l 3.033,3.032 h -18.893 l 3.032,-3.032 c 0.417,47.02 38.711,85.314 85.73,85.731 l -3.032,3.032 V 22.609 l 3.032,3.032 C 27.804,25.422 9.631,17.88 -4.288,4.289 -7.085,1.557 -2.795,-2.729 0,0"
             style="fill:#25488c;fill-opacity:1;fill-rule:nonzero;stroke:none"
             id="path58" />
        </g>
        <g
           id="g60"
           transform="rotate(-180,75.1665,121.99765)">
          <path
             d="m 0,0 c -12.8,-12.499 -29.374,-19.375 -47.261,-19.576 -1.639,-0.019 -3.032,-1.375 -3.032,-3.032 v -18.894 c 0,-1.628 1.389,-3.047 3.032,-3.032 50.321,0.447 91.348,41.474 91.795,91.795 0.014,1.639 -1.401,3.032 -3.032,3.032 H 22.608 c -1.652,0 -3.013,-1.389 -3.032,-3.032 C 19.375,29.374 12.499,12.8 0,0 -2.729,-2.794 1.556,-7.086 4.288,-4.288 17.88,9.631 25.422,27.804 25.641,47.261 L 22.608,44.229 H 41.502 L 38.47,47.261 C 38.052,0.241 -0.241,-38.052 -47.261,-38.47 l 3.032,-3.032 v 18.894 l -3.032,-3.033 c 19.457,0.219 37.63,7.761 51.549,21.353 C 7.085,-1.557 2.795,2.729 0,0"
             style="fill:#337fcb;fill-opacity:1;fill-rule:nonzero;stroke:none"
             id="path62" />
        </g>
        <g
           id="g64"
           transform="rotate(-180,81.7202,115.44395)">
          <path
             d="m 0,0 c -9.323,-9.026 -21.179,-13.949 -34.154,-14.147 -1.639,-0.025 -3.032,-1.369 -3.032,-3.032 v -18.537 c 0,-1.626 1.389,-3.051 3.032,-3.032 40.031,0.449 72.453,32.871 72.902,72.902 0.019,1.639 -1.404,3.032 -3.032,3.032 H 17.179 c -1.658,0 -3.007,-1.39 -3.032,-3.032 C 13.949,21.18 9.026,9.323 0,0 -2.716,-2.805 1.567,-7.099 4.288,-4.288 14.422,6.179 19.989,19.582 20.211,34.154 l -3.032,-3.032 h 18.537 l -3.032,3.032 C 32.271,-2.575 2.576,-32.271 -34.154,-32.684 l 3.032,-3.032 v 18.537 l -3.032,-3.032 c 14.571,0.222 27.974,5.789 38.442,15.923 C 7.097,-1.568 2.806,2.717 0,0"
             style="fill:#337fcb;fill-opacity:1;fill-rule:nonzero;stroke:none"
             id="path66" />
        </g>
        <g
           id="g68"
           transform="rotate(-180,98.98145,98.37435)">
          <path
             d="m 0,0 c -13.592,-13.92 -21.134,-32.093 -21.353,-51.55 -0.018,-1.639 1.405,-3.032 3.033,-3.032 H 0.217 c 1.657,0 3.007,1.39 3.032,3.032 0.198,12.974 5.121,24.831 14.147,34.154 2.716,2.805 -1.567,7.099 -4.289,4.288 -10.133,-10.467 -15.7,-23.87 -15.922,-38.442 l 3.032,3.032 H -18.32 l 3.032,-3.032 c 0.201,17.888 7.078,34.462 19.576,47.261 C 7.017,-1.494 2.732,2.798 0,0"
             style="fill:#25488c;fill-opacity:1;fill-rule:nonzero;stroke:none"
             id="path70" />
        </g>
        <g
           id="g72"
           transform="rotate(-180,98.7971,131.7857)">
          <path
             d="m 0,0 h -54.337 c -3.902,0 -3.909,-6.064 0,-6.064 H 0 C 3.902,-6.064 3.909,0 0,0"
             style="fill:#25488c;fill-opacity:1;fill-rule:nonzero;stroke:none"
             id="path74" />
        </g>
        <g
           id="g76"
           transform="rotate(-180,98.7971,141.2325)">
          <path
             d="m 0,0 h -54.337 c -3.902,0 -3.909,-6.064 0,-6.064 H 0 C 3.902,-6.064 3.909,0 0,0"
             style="fill:#25488c;fill-opacity:1;fill-rule:nonzero;stroke:none"
             id="path78" />
        </g>
        <g
           id="g80"
           transform="rotate(-180,98.7971,149.6097)">
          <path
             d="m 0,0 h -54.337 c -3.902,0 -3.909,-6.064 0,-6.064 H 0 C 3.902,-6.064 3.909,0 0,0"
             style="fill:#25488c;fill-opacity:1;fill-rule:nonzero;stroke:none"
             id="path82" />
        </g>
        <g
           id="g84"
           transform="rotate(-180,73.2068,72.90655)">
          <path
             d="m 0,0 h 54.337 c 3.902,0 3.909,6.064 0,6.064 H 0 C -3.902,6.064 -3.908,0 0,0"
             style="fill:#337fcb;fill-opacity:1;fill-rule:nonzero;stroke:none"
             id="path86" />
        </g>
        <g
           id="g88"
           transform="rotate(-180,73.2068,81.28375)">
          <path
             d="m 0,0 h 54.337 c 3.902,0 3.909,6.064 0,6.064 H 0 C -3.902,6.064 -3.908,0 0,0"
             style="fill:#337fcb;fill-opacity:1;fill-rule:nonzero;stroke:none"
             id="path90" />
        </g>
        <g
           id="g92"
           transform="rotate(-180,73.2068,90.7303)">
          <path
             d="m 0,0 h 54.337 c 3.902,0 3.909,6.064 0,6.064 H 0 C -3.902,6.064 -3.908,0 0,0"
             style="fill:#337fcb;fill-opacity:1;fill-rule:nonzero;stroke:none"
             id="path94" />
        </g>
        <g
           id="g96"
           transform="rotate(-180,127.4817,124.14925)">
          <path
             d="m 0,0 v -53.953 c 0,-3.902 6.064,-3.909 6.064,0 V 0 C 6.064,3.902 0,3.909 0,0"
             style="fill:#25488c;fill-opacity:1;fill-rule:nonzero;stroke:none"
             id="path98" />
        </g>
        <g
           id="g100"
           transform="rotate(-180,119.10425,124.14925)">
          <path
             d="m 0,0 v -53.953 c 0,-3.902 6.064,-3.909 6.064,0 V 0 C 6.064,3.902 0,3.909 0,0"
             style="fill:#25488c;fill-opacity:1;fill-rule:nonzero;stroke:none"
             id="path102" />
        </g>
        <g
           id="g104"
           transform="rotate(-180,109.6577,124.14925)">
          <path
             d="m 0,0 v -53.953 c 0,-3.902 6.064,-3.909 6.064,0 V 0 C 6.064,3.902 0,3.909 0,0"
             style="fill:#25488c;fill-opacity:1;fill-rule:nonzero;stroke:none"
             id="path106" />
        </g>
        <g
           id="g108"
           transform="rotate(-180,62.3462,98.367)">
          <path
             d="m 0,0 v 53.805 c 0,3.902 -6.064,3.909 -6.064,0 V 0 C -6.064,-3.902 0,-3.909 0,0"
             style="fill:#337fcb;fill-opacity:1;fill-rule:nonzero;stroke:none"
             id="path110" />
        </g>
        <g
           id="g112"
           transform="rotate(-180,52.8994,98.367)">
          <path
             d="m 0,0 v 53.953 c 0,3.902 -6.064,3.909 -6.064,0 V 0 C -6.064,-3.902 0,-3.909 0,0"
             style="fill:#337fcb;fill-opacity:1;fill-rule:nonzero;stroke:none"
             id="path114" />
        </g>
        <g
           id="g116"
           transform="rotate(-180,44.5222,98.367)">
          <path
             d="m 0,0 v 53.953 c 0,3.902 -6.064,3.909 -6.064,0 V 0 C -6.064,-3.902 0,-3.909 0,0"
             style="fill:#337fcb;fill-opacity:1;fill-rule:nonzero;stroke:none"
             id="path118" />
        </g>
        <g
           id="g120"
           transform="rotate(-180,100.31325,124.03355)">
          <path
             d="m 0,0 v -54.185 c 0,-3.902 6.064,-3.908 6.064,0 V 0 C 6.064,3.902 0,3.909 0,0"
             style="fill:#25488c;fill-opacity:1;fill-rule:nonzero;stroke:none"
             id="path122" />
        </g>
        <g
           id="g124"
           transform="rotate(-180,74.7224,71.39045)">
          <path
             d="m 0,0 v -55.165 c 0,-3.902 6.064,-3.908 6.064,0 V 0 C 6.064,3.902 0,3.909 0,0"
             style="fill:#337fcb;fill-opacity:1;fill-rule:nonzero;stroke:none"
             id="path126" />
        </g>
        <g
           id="g128"
           transform="translate(599.4844,100.8402)">
          <path
             d="m 0,0 -4.845,-8.162 h -4.233 l 5.062,8.38 -4.451,21.822 H -3.84 L -0.654,4.756 9.994,22.04 h 4.452 z"
             style="fill:#25488c;fill-opacity:1;fill-rule:nonzero;stroke:none"
             id="path130" />
        </g>
        <g
           id="g132"
           transform="translate(630.7744,114.0638)">
          <path
             d="M 0,0 C 0.48,2.095 1.004,6.459 -4.059,6.459 -6.721,6.459 -10.3,4.844 -11.392,0 Z m -12.177,-2.881 c -1.047,-4.539 0.088,-7.899 4.583,-7.899 2.662,0 5.107,1.397 6.11,4.539 h 4.102 c -0.348,-1.091 -0.916,-2.881 -2.837,-4.582 -1.177,-1.092 -3.753,-2.925 -8.16,-2.925 -6.895,0 -9.253,4.277 -7.813,11.217 0.918,4.321 2.576,7.899 6.547,10.3 2.401,1.483 5.019,1.614 6.284,1.614 9.82,0 7.769,-8.685 6.94,-12.264 z"
             style="fill:#25488c;fill-opacity:1;fill-rule:nonzero;stroke:none"
             id="path134" />
        </g>
        <g
           id="g136"
           transform="translate(641.9443,107.4735)">
          <path
             d="m 0,0 c -0.393,-1.659 -0.043,-3.972 3.929,-3.972 1.701,0 3.054,0.306 4.145,1.397 0.568,0.568 1.004,1.309 1.135,2.051 C 9.688,1.615 8.206,2.008 5.106,2.75 0.742,3.797 -2.88,4.713 -1.92,9.296 c 0.829,4.015 4.888,6.634 9.95,6.634 2.75,0 6.416,-0.786 7.201,-3.405 0.306,-1.221 0.088,-2.269 -0.129,-3.186 h -4.191 c 0.829,3.318 -1.964,3.579 -3.447,3.579 -0.611,0 -4.452,0 -5.151,-3.142 C 1.921,7.769 3.753,7.289 4.845,6.983 10.606,5.542 11.828,5.194 12.875,3.971 13.836,2.837 13.966,1.309 13.66,-0.087 13.137,-2.531 11.348,-4.626 9.515,-5.63 7.377,-6.809 4.977,-7.115 2.706,-7.115 -1.745,-7.115 -5.499,-5.281 -4.32,0 Z"
             style="fill:#25488c;fill-opacity:1;fill-rule:nonzero;stroke:none"
             id="path138" />
        </g>
        <g
           id="g140"
           transform="translate(667.2988,106.2078)">
          <path
             d="m 0,0 -7.201,-10.737 h -2.968 L -5.062,0 Z"
             style="fill:#25488c;fill-opacity:1;fill-rule:nonzero;stroke:none"
             id="path142" />
        </g>
        <g
           id="g144"
           transform="translate(688.0273,107.4735)">
          <path
             d="m 0,0 c -0.393,-1.659 -0.044,-3.972 3.928,-3.972 1.702,0 3.055,0.306 4.146,1.397 0.568,0.568 1.004,1.309 1.135,2.051 0.479,2.139 -1.004,2.532 -4.103,3.274 -4.364,1.047 -7.987,1.963 -7.027,6.546 0.829,4.015 4.888,6.634 9.951,6.634 2.75,0 6.415,-0.786 7.201,-3.405 0.306,-1.221 0.087,-2.269 -0.13,-3.186 H 10.91 c 0.829,3.318 -1.964,3.579 -3.447,3.579 -0.611,0 -4.451,0 -5.15,-3.142 C 1.92,7.769 3.753,7.289 4.844,6.983 10.605,5.542 11.828,5.194 12.875,3.971 13.835,2.837 13.966,1.309 13.66,-0.087 13.137,-2.531 11.347,-4.626 9.515,-5.63 7.376,-6.809 4.976,-7.115 2.706,-7.115 c -4.451,0 -8.205,1.834 -7.027,7.115 z"
             style="fill:#25488c;fill-opacity:1;fill-rule:nonzero;stroke:none"
             id="path146" />
        </g>
        <g
           id="g148"
           transform="translate(715.8262,103.284)">
          <path
             d="m 0,0 c 3.099,0 7.113,2.226 8.51,8.816 1.178,5.455 -0.742,8.336 -4.582,8.336 -2.619,0 -7.201,-1.659 -8.686,-8.511 C -5.718,4.146 -4.671,0 0,0 m 4.538,20.163 c 8.773,0 9.297,-6.896 8.336,-11.478 -1.395,-6.416 -6.153,-11.74 -13.616,-11.74 -7.245,0 -9.689,5.018 -8.336,11.434 1.135,5.412 5.018,11.784 13.616,11.784"
             style="fill:#25488c;fill-opacity:1;fill-rule:nonzero;stroke:none"
             id="path150" />
        </g>
        <g
           id="g152"
           transform="translate(749.7764,129.4266)">
          <path
             d="m 0,0 c -0.697,0.043 -1.571,0.087 -2.4,0.087 -3.317,0 -3.665,-1.658 -4.015,-3.186 l -0.698,-3.448 h 5.106 l -0.654,-2.968 h -5.107 l -4.015,-18.941 h -4.059 l 4.016,18.941 h -4.321 l 0.654,2.968 h 4.32 l 0.525,2.487 c 0.611,3.012 1.046,4.103 2.007,5.238 1.222,1.397 3.187,2.401 6.023,2.401 1.179,0 2.444,-0.175 3.317,-0.306 z"
             style="fill:#25488c;fill-opacity:1;fill-rule:nonzero;stroke:none"
             id="path154" />
        </g>
        <g
           id="g156"
           transform="translate(747.5059,122.9666)">
          <path
             d="M 0,0 H 3.885 L 4.845,4.583 9.209,5.892 7.943,0 h 4.888 L 12.177,-3.011 H 7.288 L 4.495,-16.148 c -0.218,-1.091 -0.61,-2.924 2.314,-2.924 0.829,0 1.658,0.131 2.007,0.218 L 8.161,-22.04 c -0.785,-0.13 -1.964,-0.262 -3.447,-0.262 -3.754,0 -5.325,1.092 -4.583,4.67 l 3.098,14.621 h -3.883 z"
             style="fill:#25488c;fill-opacity:1;fill-rule:nonzero;stroke:none"
             id="path158" />
        </g>
        <g
           id="g160"
           transform="translate(776.8311,119.9554)">
          <path
             d="M 0,0 0.567,2.924 H 4.713 L 4.016,-0.262 c 2.837,3.448 5.847,3.754 7.724,3.754 4.844,0 5.849,-2.488 6.285,-4.103 1.003,1.222 3.404,4.103 8.248,4.103 3.142,0 7.769,-1.31 6.416,-7.769 L 29.547,-18.984 H 25.4 l 2.968,14.052 c 0.437,1.921 0.262,2.75 0,3.317 -0.523,1.004 -1.702,1.921 -3.797,1.921 -2.663,0 -4.408,-1.528 -5.15,-2.313 -1.266,-1.353 -1.789,-3.754 -1.964,-4.714 l -2.618,-12.263 h -4.147 l 3.099,14.489 C 14.359,-1.79 13.225,0.306 9.995,0.306 7.201,0.306 5.281,-1.44 4.67,-2.095 3.491,-3.36 3.055,-5.15 2.794,-6.546 L 0.131,-18.984 h -4.146 z"
             style="fill:#25488c;fill-opacity:1;fill-rule:nonzero;stroke:none"
             id="path162" />
        </g>
        <g
           id="g164"
           transform="translate(826.8848,111.7503)">
          <path
             d="m 0,0 c -1.658,0 -7.899,0 -8.859,-4.451 -0.306,-1.397 0.043,-3.798 3.709,-3.798 2.094,0 3.84,0.83 5.193,2.357 1.223,1.484 1.528,2.706 2.27,5.761 C 1.571,-0.043 1.003,0 0,0 m 0.523,-10.779 c -0.086,1.091 0.043,2.137 0.306,3.272 -2.75,-3.622 -5.762,-3.972 -7.594,-3.972 -5.019,0 -7.158,2.837 -6.372,6.46 0.393,1.746 1.572,4.54 5.194,6.416 2.663,1.31 6.153,1.44 7.899,1.44 1.047,0 1.702,-0.044 2.968,-0.13 0.567,2.705 0.829,3.883 0.219,4.844 -0.569,1.091 -2.314,1.44 -3.493,1.44 -4.145,0 -4.975,-2.837 -5.193,-3.71 h -4.103 c 0.394,1.135 0.83,2.662 2.401,4.146 2.052,1.833 5.281,2.357 7.595,2.357 3.185,0 6.371,-1.004 7.069,-3.23 C 7.855,7.245 7.681,6.198 7.462,5.194 L 5.062,-5.28 C 4.975,-5.63 4.408,-8.554 4.232,-10.779 Z"
             style="fill:#25488c;fill-opacity:1;fill-rule:nonzero;stroke:none"
             id="path166" />
        </g>
        <g
           id="g168"
           transform="translate(839.626,122.9666)">
          <path
             d="M 0,0 H 3.885 L 4.845,4.583 9.209,5.892 7.943,0 h 4.888 L 12.176,-3.011 H 7.288 L 4.495,-16.148 c -0.218,-1.091 -0.61,-2.924 2.314,-2.924 0.829,0 1.658,0.131 2.006,0.218 L 8.161,-22.04 c -0.786,-0.13 -1.964,-0.262 -3.447,-0.262 -3.754,0 -5.325,1.092 -4.583,4.67 l 3.098,14.621 h -3.884 z"
             style="fill:#25488c;fill-opacity:1;fill-rule:nonzero;stroke:none"
             id="path170" />
        </g>
        <g
           id="g172"
           transform="translate(853.0654,122.9666)">
          <path
             d="M 0,0 H 3.885 L 4.845,4.583 9.209,5.892 7.943,0 h 4.888 L 12.177,-3.011 H 7.288 L 4.495,-16.148 c -0.218,-1.091 -0.61,-2.924 2.314,-2.924 0.829,0 1.658,0.131 2.007,0.218 L 8.161,-22.04 c -0.785,-0.13 -1.964,-0.262 -3.447,-0.262 -3.754,0 -5.325,1.092 -4.583,4.67 l 3.098,14.621 h -3.883 z"
             style="fill:#25488c;fill-opacity:1;fill-rule:nonzero;stroke:none"
             id="path174" />
        </g>
        <g
           id="g176"
           transform="translate(883.1338,114.0638)">
          <path
             d="M 0,0 C 0.48,2.095 1.004,6.459 -4.059,6.459 -6.721,6.459 -10.3,4.844 -11.392,0 Z m -12.177,-2.881 c -1.047,-4.539 0.088,-7.899 4.583,-7.899 2.661,0 5.107,1.397 6.11,4.539 h 4.102 c -0.348,-1.091 -0.916,-2.881 -2.837,-4.582 -1.177,-1.092 -3.753,-2.925 -8.161,-2.925 -6.894,0 -9.252,4.277 -7.812,11.217 0.918,4.321 2.576,7.899 6.547,10.3 2.401,1.483 5.019,1.614 6.284,1.614 9.82,0 7.769,-8.685 6.94,-12.264 z"
             style="fill:#25488c;fill-opacity:1;fill-rule:nonzero;stroke:none"
             id="path178" />
        </g>
        <g
           id="g180"
           transform="translate(894.4785,118.4281)">
          <path
             d="M 0,0 C 0.306,1.484 0.567,3.012 0.741,4.452 H 4.889 L 4.06,0.218 c 1.439,3.055 4.276,4.059 6.153,4.321 1.266,0.174 2.183,0.131 2.88,0.087 L 12.22,0.611 C 12.003,0.698 11.784,0.742 11.479,0.785 11.173,0.83 10.779,0.83 10.3,0.83 5.455,0.83 3.71,-2.051 2.925,-5.805 L 0.437,-17.457 H -3.71 Z"
             style="fill:#25488c;fill-opacity:1;fill-rule:nonzero;stroke:none"
             id="path182" />
        </g>
        <g
           id="g184"
           transform="translate(912.1514,107.4735)">
          <path
             d="m 0,0 c -0.393,-1.659 -0.043,-3.972 3.929,-3.972 1.701,0 3.054,0.306 4.145,1.397 0.568,0.568 1.004,1.309 1.135,2.051 C 9.688,1.615 8.206,2.008 5.106,2.75 0.742,3.797 -2.88,4.713 -1.92,9.296 c 0.829,4.015 4.888,6.634 9.95,6.634 2.75,0 6.416,-0.786 7.201,-3.405 0.306,-1.221 0.088,-2.269 -0.129,-3.186 h -4.191 c 0.829,3.318 -1.964,3.579 -3.447,3.579 -0.611,0 -4.452,0 -5.151,-3.142 C 1.921,7.769 3.753,7.289 4.845,6.983 10.606,5.542 11.828,5.194 12.875,3.971 13.836,2.837 13.966,1.309 13.66,-0.087 13.137,-2.531 11.348,-4.626 9.515,-5.63 7.377,-6.809 4.977,-7.115 2.706,-7.115 -1.745,-7.115 -5.499,-5.281 -4.32,0 Z"
             style="fill:#25488c;fill-opacity:1;fill-rule:nonzero;stroke:none"
             id="path186" />
        </g>
      </g>
    </g>
  </g>
</svg>
