<svg xmlns="http://www.w3.org/2000/svg" width="1349.333" height="526.049"><defs><clipPath id="a" clipPathUnits="userSpaceOnUse"><path d="M0 394.537h1012V0H0Z"/></clipPath><clipPath id="b" clipPathUnits="userSpaceOnUse"><path d="M0 394.537h1012V0H0Z"/></clipPath></defs><g clip-path="url(#a)" transform="matrix(1.33333 0 0 -1.33333 0 526.05)"><path d="M0 0q-.002-9.187 3.136-15.68 3.134-6.5 8.736-10.64 5.597-4.148 12.88-6.048 7.276-1.905 15.792-1.903 9.182-.001 15.68 2.126 6.495 2.128 10.528 5.489 4.03 3.36 5.824 7.728 1.792 4.367 1.792 8.848-.001 9.183-4.144 13.553-4.147 4.366-9.072 6.159-8.516 3.134-19.824 5.936-11.314 2.798-27.888 7.28-10.307 2.689-17.136 7.056-6.834 4.368-10.864 9.744-4.032 5.376-5.712 11.424a45.8 45.8 0 0 0-1.68 12.321q0 12.094 5.04 20.943 5.04 8.845 13.328 14.672 8.285 5.823 18.816 8.624a82.5 82.5 0 0 0 21.28 2.8q12.543-.001 23.632-3.248 11.088-3.249 19.488-9.745 8.399-6.497 13.328-16.015 4.926-9.522 4.928-22.065h-28Q68.766 74.816 59.36 81.2q-9.41 6.384-23.968 6.384-4.93 0-10.08-1.008-5.156-1.008-9.408-3.36a20.6 20.6 0 0 1-7.056-6.384q-2.802-4.031-2.8-10.08-.001-8.515 5.264-13.328 5.26-4.82 13.776-7.279.893-.227 7.056-1.905a1942 1942 0 0 1 13.776-3.696 4280 4280 0 0 1 14.896-3.92q7.276-1.906 10.416-2.8 7.838-2.467 13.664-6.72 5.822-4.257 9.744-9.745 3.917-5.49 5.824-11.759c1.267-4.182 1.904-8.366 1.904-12.543q0-13.443-5.488-22.961c-3.661-6.349-8.477-11.535-14.448-15.569q-8.96-6.048-20.384-8.847a97.5 97.5 0 0 0-23.296-2.8q-13.665 0-25.76 3.36Q.894-50.4-8.064-43.456q-8.961 6.94-14.336 17.808Q-27.778-14.784-28 0z" style="fill:#25488c;fill-opacity:1;fill-rule:nonzero;stroke:none" transform="translate(307.834 196.093)"/><path d="M0 0q-12.771-.001-22.064-5.152-9.298-5.156-15.121-13.776-5.826-8.627-8.624-19.599a90.2 90.2 0 0 1-2.799-22.401c0-7.616.93-15.086 2.799-22.4 1.866-7.318 4.739-13.854 8.624-19.6q5.823-8.627 15.121-13.776c6.194-3.437 13.551-5.151 22.064-5.151s15.865 1.714 22.063 5.151q9.292 5.15 15.12 13.776c3.881 5.746 6.755 12.282 8.624 19.6a90.3 90.3 0 0 1 2.8 22.4q-.001 11.422-2.8 22.401-2.803 10.972-8.624 19.599-5.828 8.62-15.12 13.776Q12.767-.002 0 0m0 22.848q17.917 0 32.143-6.72 14.222-6.72 24.079-18.144 9.855-11.425 15.121-26.656c3.506-10.157 5.264-20.909 5.264-32.256 0-11.502-1.758-22.326-5.264-32.48q-5.266-15.232-15.121-26.656-9.857-11.426-24.079-18.032Q17.916-144.702 0-144.704q-17.923.002-32.145 6.608-14.226 6.606-24.08 18.032-9.858 11.424-15.12 26.656-5.264 15.229-5.263 32.48-.001 17.02 5.263 32.256 5.262 15.23 15.12 26.656 9.854 11.424 24.08 18.144 14.221 6.72 32.145 6.72" style="fill:#25488c;fill-opacity:1;fill-rule:nonzero;stroke:none" transform="translate(495.712 283.677)"/><path d="M0 0h39.424l44.128-125.216H84L127.008 0h38.975v-159.937h-26.655v123.424h-.448L94.527-159.937H71.456L27.104-36.513h-.448v-123.424H0Z" style="fill:#337fcb;fill-opacity:1;fill-rule:nonzero;stroke:none" transform="translate(590.406 302.717)"/><path d="M0 0h48.832L24.864 68.768h-.673Zm9.855 96.319h29.792l61.601-159.936H71.231L56.224-21.281h-63.84l-15.008-42.336h-28.897z" style="fill:#337fcb;fill-opacity:1;fill-rule:nonzero;stroke:none" transform="translate(823.916 206.398)"/></g><g clip-path="url(#b)" transform="matrix(1.33333 0 0 -1.33333 0 526.05)"><path d="M0 0c9.323 9.026 21.179 13.949 34.153 14.147 1.639.025 3.033 1.369 3.033 3.032v18.537c0 1.626-1.39 3.051-3.033 3.033-19.457-.219-37.63-7.761-51.549-21.353-2.797-2.731 1.493-7.018 4.288-4.289 12.8 12.499 29.374 19.376 47.261 19.577l-3.032 3.032V17.179l3.032 3.032C19.583 19.989 6.18 14.422-4.289 4.288-7.098 1.568-2.807-2.717 0 0" style="fill:#25488c;fill-opacity:1;fill-rule:nonzero;stroke:none" transform="translate(163.44 230.887)"/><path d="M0 0h-16.754c-1.65 0-3.018-1.39-3.033-3.032-.417-47.02-38.711-85.314-85.731-85.731-1.639-.015-3.032-1.378-3.032-3.032v-16.755c0-1.63 1.389-3.044 3.032-3.032 28.696.215 56.413 11.45 76.757 31.793C-8.418-59.445 2.817-31.728 3.032-3.032c.03 3.903-6.035 3.907-6.064 0C-3.235-30.169-13.824-56.25-33.05-75.5c-19.216-19.241-45.356-29.815-72.468-30.018l3.033-3.032v16.755l-3.033-3.033c50.322.447 91.349 41.474 91.796 91.796l-3.032-3.032H0C3.902-6.064 3.909 0 0 0" style="fill:#337fcb;fill-opacity:1;fill-rule:nonzero;stroke:none" transform="translate(251.931 251.33)"/><path d="M0 0c16.315 16.01 37.762 24.907 60.621 25.11 1.639.015 3.032 1.377 3.032 3.032v16.754c0 1.631-1.389 3.045-3.032 3.033-28.696-.215-56.413-11.45-76.756-31.794-20.344-20.343-31.579-48.061-31.794-76.756-.012-1.639 1.399-3.032 3.032-3.032h16.755c1.65 0 3.017 1.389 3.032 3.032C-24.907-37.763-16.01-16.315 0 0c2.736 2.788-1.549 7.08-4.288 4.288-17.118-17.444-26.67-40.467-26.886-64.909l3.032 3.032h-16.755l3.032-3.032c.203 27.137 10.793 53.218 30.018 72.468C7.369 31.088 33.509 41.662 60.621 41.864l-3.033 3.032V28.142l3.033 3.032c-24.442-.216-47.465-9.767-64.909-26.886C-7.078 1.55-2.789-2.737 0 0" style="fill:#25488c;fill-opacity:1;fill-rule:nonzero;stroke:none" transform="translate(136.974 257.355)"/><path d="M0 0c12.8 12.499 29.374 19.375 47.261 19.577 1.639.018 3.032 1.374 3.032 3.032v18.893c0 1.628-1.389 3.047-3.032 3.032C-3.06 44.088-44.087 3.06-44.534-47.261c-.014-1.639 1.401-3.032 3.033-3.032h18.893c1.652 0 3.013 1.389 3.032 3.032C-19.375-29.374-12.498-12.8 0 0c2.729 2.794-1.556 7.087-4.288 4.289-13.592-13.92-21.134-32.093-21.353-51.55l3.033 3.032h-18.893l3.032-3.032C-38.052-.241.242 38.053 47.261 38.47l-3.032 3.032V22.609l3.032 3.032C27.804 25.422 9.631 17.88-4.288 4.289-7.085 1.557-2.795-2.729 0 0" style="fill:#25488c;fill-opacity:1;fill-rule:nonzero;stroke:none" transform="translate(150.333 243.995)"/><path d="M0 0c-12.8-12.499-29.374-19.375-47.261-19.576-1.639-.019-3.032-1.375-3.032-3.032v-18.894c0-1.628 1.389-3.047 3.032-3.032C3.06-44.087 44.087-3.06 44.534 47.261c.014 1.639-1.401 3.032-3.032 3.032H22.608c-1.652 0-3.013-1.389-3.032-3.032C19.375 29.374 12.499 12.8 0 0c-2.729-2.794 1.556-7.086 4.288-4.288C17.88 9.631 25.422 27.804 25.641 47.261l-3.033-3.032h18.894l-3.032 3.032C38.052.241-.241-38.052-47.261-38.47l3.032-3.032v18.894l-3.032-3.033c19.457.219 37.63 7.761 51.549 21.353C7.085-1.557 2.795 2.729 0 0" style="fill:#337fcb;fill-opacity:1;fill-rule:nonzero;stroke:none" transform="translate(193.675 201.037)"/><path d="M0 0c-9.323-9.026-21.179-13.949-34.154-14.147-1.639-.025-3.032-1.369-3.032-3.032v-18.537c0-1.626 1.389-3.051 3.032-3.032 40.031.449 72.453 32.871 72.902 72.902.019 1.639-1.404 3.032-3.032 3.032H17.179c-1.658 0-3.007-1.39-3.032-3.032C13.949 21.18 9.026 9.323 0 0c-2.716-2.805 1.567-7.099 4.288-4.288 10.134 10.467 15.701 23.87 15.923 38.442l-3.032-3.032h18.537l-3.032 3.032C32.271-2.575 2.576-32.271-34.154-32.684l3.032-3.032v18.537l-3.032-3.032c14.571.222 27.974 5.789 38.442 15.923C7.097-1.568 2.806 2.717 0 0" style="fill:#337fcb;fill-opacity:1;fill-rule:nonzero;stroke:none" transform="translate(180.567 214.144)"/><path d="M0 0c-13.592-13.92-21.134-32.093-21.353-51.55-.018-1.639 1.405-3.032 3.033-3.032H.217c1.657 0 3.007 1.39 3.032 3.032.198 12.974 5.121 24.831 14.147 34.154 2.716 2.805-1.567 7.099-4.289 4.288C2.974-23.575-2.593-36.978-2.815-51.55l3.032 3.032H-18.32l3.032-3.032c.201 17.888 7.078 34.462 19.576 47.261C7.017-1.494 2.732 2.798 0 0" style="fill:#25488c;fill-opacity:1;fill-rule:nonzero;stroke:none" transform="translate(146.045 248.284)"/><path d="M0 0h-54.337c-3.902 0-3.909-6.064 0-6.064H0C3.902-6.064 3.909 0 0 0" style="fill:#25488c;fill-opacity:1;fill-rule:nonzero;stroke:none" transform="translate(146.414 181.46)"/><path d="M0 0h-54.337c-3.902 0-3.909-6.064 0-6.064H0C3.902-6.064 3.909 0 0 0" style="fill:#25488c;fill-opacity:1;fill-rule:nonzero;stroke:none" transform="translate(146.414 162.567)"/><path d="M0 0h-54.337c-3.902 0-3.909-6.064 0-6.064H0C3.902-6.064 3.909 0 0 0" style="fill:#25488c;fill-opacity:1;fill-rule:nonzero;stroke:none" transform="translate(146.414 145.813)"/><path d="M0 0h54.337c3.902 0 3.909 6.064 0 6.064H0C-3.902 6.064-3.908 0 0 0" style="fill:#337fcb;fill-opacity:1;fill-rule:nonzero;stroke:none" transform="translate(197.594 299.22)"/><path d="M0 0h54.337c3.902 0 3.909 6.064 0 6.064H0C-3.902 6.064-3.908 0 0 0" style="fill:#337fcb;fill-opacity:1;fill-rule:nonzero;stroke:none" transform="translate(197.594 282.465)"/><path d="M0 0h54.337c3.902 0 3.909 6.064 0 6.064H0C-3.902 6.064-3.908 0 0 0" style="fill:#337fcb;fill-opacity:1;fill-rule:nonzero;stroke:none" transform="translate(197.594 263.572)"/><path d="M0 0v-53.953c0-3.902 6.064-3.909 6.064 0V0C6.064 3.902 0 3.909 0 0" style="fill:#25488c;fill-opacity:1;fill-rule:nonzero;stroke:none" transform="translate(89.044 196.734)"/><path d="M0 0v-53.953c0-3.902 6.064-3.909 6.064 0V0C6.064 3.902 0 3.909 0 0" style="fill:#25488c;fill-opacity:1;fill-rule:nonzero;stroke:none" transform="translate(105.8 196.734)"/><path d="M0 0v-53.953c0-3.902 6.064-3.909 6.064 0V0C6.064 3.902 0 3.909 0 0" style="fill:#25488c;fill-opacity:1;fill-rule:nonzero;stroke:none" transform="translate(124.692 196.734)"/><path d="M0 0v53.805c0 3.902-6.064 3.909-6.064 0V0C-6.064-3.902 0-3.909 0 0" style="fill:#337fcb;fill-opacity:1;fill-rule:nonzero;stroke:none" transform="translate(219.315 248.298)"/><path d="M0 0v53.953c0 3.902-6.064 3.909-6.064 0V0C-6.064-3.902 0-3.909 0 0" style="fill:#337fcb;fill-opacity:1;fill-rule:nonzero;stroke:none" transform="translate(238.209 248.298)"/><path d="M0 0v53.953c0 3.902-6.064 3.909-6.064 0V0C-6.064-3.902 0-3.909 0 0" style="fill:#337fcb;fill-opacity:1;fill-rule:nonzero;stroke:none" transform="translate(254.963 248.298)"/><path d="M0 0v-54.185c0-3.902 6.064-3.908 6.064 0V0C6.064 3.902 0 3.909 0 0" style="fill:#25488c;fill-opacity:1;fill-rule:nonzero;stroke:none" transform="translate(143.381 196.965)"/><path d="M0 0v-55.165c0-3.902 6.064-3.908 6.064 0V0C6.064 3.902 0 3.909 0 0" style="fill:#337fcb;fill-opacity:1;fill-rule:nonzero;stroke:none" transform="translate(194.563 302.251)"/><path d="m0 0-4.845-8.162h-4.233l5.062 8.38-4.451 21.822h4.627L-.654 4.756 9.994 22.04h4.452z" style="fill:#25488c;fill-opacity:1;fill-rule:nonzero;stroke:none" transform="translate(599.484 100.84)"/><path d="M0 0c.48 2.095 1.004 6.459-4.059 6.459-2.662 0-6.241-1.615-7.333-6.459Zm-12.177-2.881c-1.047-4.539.088-7.899 4.583-7.899 2.662 0 5.107 1.397 6.11 4.539h4.102c-.348-1.091-.916-2.881-2.837-4.582-1.177-1.092-3.753-2.925-8.16-2.925-6.895 0-9.253 4.277-7.813 11.217.918 4.321 2.576 7.899 6.547 10.3 2.401 1.483 5.019 1.614 6.284 1.614 9.82 0 7.769-8.685 6.94-12.264z" style="fill:#25488c;fill-opacity:1;fill-rule:nonzero;stroke:none" transform="translate(630.774 114.064)"/><path d="M0 0c-.393-1.659-.043-3.972 3.929-3.972 1.701 0 3.054.306 4.145 1.397.568.568 1.004 1.309 1.135 2.051.479 2.139-1.003 2.532-4.103 3.274C.742 3.797-2.88 4.713-1.92 9.296c.829 4.015 4.888 6.634 9.95 6.634 2.75 0 6.416-.786 7.201-3.405.306-1.221.088-2.269-.129-3.186h-4.191c.829 3.318-1.964 3.579-3.447 3.579-.611 0-4.452 0-5.151-3.142-.392-2.007 1.44-2.487 2.532-2.793 5.761-1.441 6.983-1.789 8.03-3.012.961-1.134 1.091-2.662.785-4.058-.523-2.444-2.312-4.539-4.145-5.543-2.138-1.179-4.538-1.485-6.809-1.485-4.451 0-8.205 1.834-7.026 7.115Z" style="fill:#25488c;fill-opacity:1;fill-rule:nonzero;stroke:none" transform="translate(641.944 107.474)"/><path d="m0 0-7.201-10.737h-2.968L-5.062 0Z" style="fill:#25488c;fill-opacity:1;fill-rule:nonzero;stroke:none" transform="translate(667.299 106.208)"/><path d="M0 0c-.393-1.659-.044-3.972 3.928-3.972 1.702 0 3.055.306 4.146 1.397.568.568 1.004 1.309 1.135 2.051.479 2.139-1.004 2.532-4.103 3.274C.742 3.797-2.881 4.713-1.921 9.296c.829 4.015 4.888 6.634 9.951 6.634 2.75 0 6.415-.786 7.201-3.405.306-1.221.087-2.269-.13-3.186H10.91c.829 3.318-1.964 3.579-3.447 3.579-.611 0-4.451 0-5.15-3.142-.393-2.007 1.44-2.487 2.531-2.793 5.761-1.441 6.984-1.789 8.031-3.012.96-1.134 1.091-2.662.785-4.058-.523-2.444-2.313-4.539-4.145-5.543-2.139-1.179-4.539-1.485-6.809-1.485-4.451 0-8.205 1.834-7.027 7.115z" style="fill:#25488c;fill-opacity:1;fill-rule:nonzero;stroke:none" transform="translate(688.027 107.474)"/><path d="M0 0c3.099 0 7.113 2.226 8.51 8.816 1.178 5.455-.742 8.336-4.582 8.336-2.619 0-7.201-1.659-8.686-8.511C-5.718 4.146-4.671 0 0 0m4.538 20.163c8.773 0 9.297-6.896 8.336-11.478C11.479 2.269 6.721-3.055-.742-3.055c-7.245 0-9.689 5.018-8.336 11.434 1.135 5.412 5.018 11.784 13.616 11.784" style="fill:#25488c;fill-opacity:1;fill-rule:nonzero;stroke:none" transform="translate(715.826 103.284)"/><path d="M0 0c-.697.043-1.571.087-2.4.087-3.317 0-3.665-1.658-4.015-3.186l-.698-3.448h5.106l-.654-2.968h-5.107l-4.015-18.941h-4.059l4.016 18.941h-4.321l.654 2.968h4.32l.525 2.487c.611 3.012 1.046 4.103 2.007 5.238 1.222 1.397 3.187 2.401 6.023 2.401 1.179 0 2.444-.175 3.317-.306z" style="fill:#25488c;fill-opacity:1;fill-rule:nonzero;stroke:none" transform="translate(749.776 129.427)"/><path d="M0 0h3.885l.96 4.583 4.364 1.309L7.943 0h4.888l-.654-3.011H7.288L4.495-16.148c-.218-1.091-.61-2.924 2.314-2.924.829 0 1.658.131 2.007.218l-.655-3.186a21.4 21.4 0 0 0-3.447-.262c-3.754 0-5.325 1.092-4.583 4.67L3.229-3.011H-.654z" style="fill:#25488c;fill-opacity:1;fill-rule:nonzero;stroke:none" transform="translate(747.506 122.967)"/><path d="m0 0 .567 2.924h4.146L4.016-.262c2.837 3.448 5.847 3.754 7.724 3.754 4.844 0 5.849-2.488 6.285-4.103 1.003 1.222 3.404 4.103 8.248 4.103 3.142 0 7.769-1.31 6.416-7.769l-3.142-14.707H25.4l2.968 14.052c.437 1.921.262 2.75 0 3.317C27.845-.611 26.666.306 24.571.306c-2.663 0-4.408-1.528-5.15-2.313-1.266-1.353-1.789-3.754-1.964-4.714l-2.618-12.263h-4.147l3.099 14.489C14.359-1.79 13.225.306 9.995.306 7.201.306 5.281-1.44 4.67-2.095 3.491-3.36 3.055-5.15 2.794-6.546L.131-18.984h-4.146z" style="fill:#25488c;fill-opacity:1;fill-rule:nonzero;stroke:none" transform="translate(776.831 119.955)"/><path d="M0 0c-1.658 0-7.899 0-8.859-4.451-.306-1.397.043-3.798 3.709-3.798 2.094 0 3.84.83 5.193 2.357 1.223 1.484 1.528 2.706 2.27 5.761C1.571-.043 1.003 0 0 0m.523-10.779C.437-9.688.566-8.642.829-7.507c-2.75-3.622-5.762-3.972-7.594-3.972-5.019 0-7.158 2.837-6.372 6.46.393 1.746 1.572 4.54 5.194 6.416 2.663 1.31 6.153 1.44 7.899 1.44 1.047 0 1.702-.044 2.968-.13.567 2.705.829 3.883.219 4.844C2.574 8.642.829 8.991-.35 8.991c-4.145 0-4.975-2.837-5.193-3.71h-4.103c.394 1.135.83 2.662 2.401 4.146 2.052 1.833 5.281 2.357 7.595 2.357 3.185 0 6.371-1.004 7.069-3.23.436-1.309.262-2.356.043-3.36L5.062-5.28c-.087-.35-.654-3.274-.83-5.499Z" style="fill:#25488c;fill-opacity:1;fill-rule:nonzero;stroke:none" transform="translate(826.885 111.75)"/><path d="M0 0h3.885l.96 4.583 4.364 1.309L7.943 0h4.888l-.655-3.011H7.288L4.495-16.148c-.218-1.091-.61-2.924 2.314-2.924.829 0 1.658.131 2.006.218l-.654-3.186a21.4 21.4 0 0 0-3.447-.262c-3.754 0-5.325 1.092-4.583 4.67L3.229-3.011H-.655z" style="fill:#25488c;fill-opacity:1;fill-rule:nonzero;stroke:none" transform="translate(839.626 122.967)"/><path d="M0 0h3.885l.96 4.583 4.364 1.309L7.943 0h4.888l-.654-3.011H7.288L4.495-16.148c-.218-1.091-.61-2.924 2.314-2.924.829 0 1.658.131 2.007.218l-.655-3.186a21.4 21.4 0 0 0-3.447-.262c-3.754 0-5.325 1.092-4.583 4.67L3.229-3.011H-.654z" style="fill:#25488c;fill-opacity:1;fill-rule:nonzero;stroke:none" transform="translate(853.065 122.967)"/><path d="M0 0c.48 2.095 1.004 6.459-4.059 6.459-2.662 0-6.241-1.615-7.333-6.459Zm-12.177-2.881c-1.047-4.539.088-7.899 4.583-7.899 2.661 0 5.107 1.397 6.11 4.539h4.102c-.348-1.091-.916-2.881-2.837-4.582-1.177-1.092-3.753-2.925-8.161-2.925-6.894 0-9.252 4.277-7.812 11.217.918 4.321 2.576 7.899 6.547 10.3 2.401 1.483 5.019 1.614 6.284 1.614 9.82 0 7.769-8.685 6.94-12.264z" style="fill:#25488c;fill-opacity:1;fill-rule:nonzero;stroke:none" transform="translate(883.134 114.064)"/><path d="M0 0c.306 1.484.567 3.012.741 4.452h4.148L4.06.218c1.439 3.055 4.276 4.059 6.153 4.321 1.266.174 2.183.131 2.88.087L12.22.611c-.217.087-.436.131-.741.174-.306.045-.7.045-1.179.045-4.845 0-6.59-2.881-7.375-6.635L.437-17.457H-3.71Z" style="fill:#25488c;fill-opacity:1;fill-rule:nonzero;stroke:none" transform="translate(894.479 118.428)"/><path d="M0 0c-.393-1.659-.043-3.972 3.929-3.972 1.701 0 3.054.306 4.145 1.397.568.568 1.004 1.309 1.135 2.051.479 2.139-1.003 2.532-4.103 3.274C.742 3.797-2.88 4.713-1.92 9.296c.829 4.015 4.888 6.634 9.95 6.634 2.75 0 6.416-.786 7.201-3.405.306-1.221.088-2.269-.129-3.186h-4.191c.829 3.318-1.964 3.579-3.447 3.579-.611 0-4.452 0-5.151-3.142-.392-2.007 1.44-2.487 2.532-2.793 5.761-1.441 6.983-1.789 8.03-3.012.961-1.134 1.091-2.662.785-4.058-.523-2.444-2.312-4.539-4.145-5.543-2.138-1.179-4.538-1.485-6.809-1.485-4.451 0-8.205 1.834-7.026 7.115Z" style="fill:#25488c;fill-opacity:1;fill-rule:nonzero;stroke:none" transform="translate(912.151 107.474)"/></g></svg>